<svg xmlns="http://www.w3.org/2000/svg" version="1.1" xmlns:xlink="http://www.w3.org/1999/xlink" xmlns:svgjs="http://svgjs.dev/svgjs" width="100%" height="100%" viewBox="0 0 1000 600"><rect width="1000" height="600" x="0" y="0" fill="#ccf381"/><g><circle r="166.66666666666666" cx="456.78629557291663" cy="479.00853692816713" fill="9D3C72" transform="matrix(0.4308567446292471,0,0,0.4308567446292471,0,93.61594875890655)"/><path d="M393.2446340784205 408.0859208010066L393.2446340784205 404.0085399720699L456.2505845518441 404.0085399720699Q488.6017740485902 404.0085399720699 504.4648688064243 413.3240158805165Q520.3279635642584 422.6394917889632 520.3279635642584 446.6573482046707L520.3279635642584 446.6573482046707Q520.3279635642584 473.23472835241154 501.0422498624263 483.2942518573795L501.0422498624263 483.2942518573795Q483.0362980266109 492.5204420542436 450.6851085298648 492.5204420542436L450.6851085298648 492.5204420542436L448.95891810593537 492.5204420542436L448.95891810593537 549.9311546018271L475.74463158070216 549.9311546018271L475.74463158070216 554.0085354307637L393.2446340784205 554.0085354307637L393.2446340784205 549.9311546018271L407.17320508529923 549.9311546018271L407.17320508529923 408.0859208010066L393.2446340784205 408.0859208010066ZM454.7327274549407 408.0859208010066L448.95891810593537 408.0859208010066L448.95891810593537 488.44306122530685L453.45296558892403 488.44306122530685Q466.31010805681206 488.44306122530685 471.2505840977135 479.66329958635555Q476.1612982347541 470.8537760435434 476.1612982347541 451.1513956876594L476.1612982347541 451.1513956876594L476.1612982347541 440.8537769518046Q476.1612982347541 422.6394917889632 471.57796504018285 415.3775872469153Q466.9648699417508 408.0859208010066 454.7327274549407 408.0859208010066L454.7327274549407 408.0859208010066Z " fill="#ccf381" transform="matrix(0.4308567446292471,0,0,0.4308567446292471,0,93.61594875890655)"/><path d="M802.4904018480556 487.6340450206011L802.4904018480556 487.6340450206011L802.4904018480556 472.23238826178573Q802.4904018480556 434.1761369459135 798.7627963660909 424.17806332762063L798.7627963660909 424.17806332762063Q794.6017483862233 412.7351813829848 786.8864719235522 410.047837895987L786.8864719235522 410.047837895987Q782.5231507779966 408.37186023742925 776.2815788081953 408.37186023742925Q770.040006838394 408.37186023742925 765.561101026731 410.047837895987Q761.0821952150679 411.694919388018 758.1925785623821 415.8559673678855Q755.2740657431694 420.0170153477531 753.5113995850311 424.6115058255235Q751.7198372603659 429.1771001367671 750.6795752653991 437.49919609650226L750.6795752653991 437.49919609650226Q749.437040104744 449.57779370472895 749.437040104744 473.0703770910646L749.437040104744 473.0703770910646L749.437040104744 488.067487518504Q749.437040104744 513.4383217290854 751.4308755950973 524.1587995105497Q753.3958149189236 534.8792772920142 756.3143277381364 539.4448716032578L756.3143277381364 539.4448716032578Q762.7581728736257 549.6452183872386 776.2815788081953 549.6452183872386L776.2815788081953 549.6452183872386Q792.7234975619776 549.6452183872386 797.6069497050166 535.8039546208736Q802.4904018480556 521.9626908545085 802.4904018480556 487.6340450206011ZM775.8770324768193 554.0085395327942Q741.114944145009 554.0085395327942 723.9506212280553 535.1682389572827Q706.7862983111015 516.3568345482981 706.7862983111015 480.6700688876283Q706.7862983111015 444.9833032269585 725.1931563887101 424.49592115941607Q743.6289106328456 404.0085390918737 777.3218408031621 404.0085390918737Q811.0147709734788 404.0085390918737 828.1790938904325 423.45565916444923Q845.3434168073862 442.90277923702473 845.3434168073862 478.7051295638019Q845.3434168073862 514.4785837240522 827.9768207247445 534.2435616284233Q810.6102246421027 554.0085395327942 775.8770324768193 554.0085395327942ZM959.5699630880564 478.2716870658991L959.5699630880564 478.2716870658991L948.5605236413235 478.2716870658991L948.5605236413235 547.9692407286809L962.0839295758931 547.9692407286809L962.0839295758931 551.9280155428604L894.466899903045 551.9280155428604L894.466899903045 547.9692407286809L907.9903058376146 547.9692407286809L907.9903058376146 410.25011106167506L894.466899903045 410.25011106167506L894.466899903045 406.29133624749545L957.2871659324346 406.29133624749545Q984.3339778015738 406.29133624749545 995.6612750801022 409.0942644006007Q1007.0174685251574 411.89719255370596 1011.583062836401 415.8559673678855L1011.583062836401 415.8559673678855Q1021.5811364546939 423.97579016193265 1021.5811364546939 441.66024407636985Q1021.5811364546939 459.344697990807 1012.8255979970559 466.94438978737065Q1004.0989557059447 474.54408158393437 986.2122286258195 475.98888991027724L986.2122286258195 475.98888991027724L986.2122286258195 476.62460557386817Q1003.0586937109779 478.90740272948995 1009.7048120121551 486.5937830256342Q1016.3798264798595 494.3090594883053 1016.3798264798595 512.3980597341185L1016.3798264798595 512.3980597341185L1016.3798264798595 523.4363953473783Q1016.3798264798595 534.2435616284233 1017.5067769744069 538.0000632769147Q1018.6626236354812 541.7276687588794 1022.4191252839728 541.7276687588794Q1026.1467307659375 541.7276687588794 1028.3428394219786 538.2890249421835Q1030.510051911493 534.8792772920142 1032.3883027357388 523.8409416787542L1032.3883027357388 523.8409416787542L1035.9425312185424 524.2454880101303Q1033.6308378963936 541.9299419245675 1027.9093969240757 547.9692407286809Q1022.1879559517579 554.0085395327942 1005.1392177009116 554.0085395327942Q988.0904794500653 554.0085395327942 980.8953339848777 546.0043014048545Q973.7290846862168 538.0000632769147 973.7290846862168 515.9233920503953L973.7290846862168 515.9233920503953L973.7290846862168 500.7529046237947Q973.7290846862168 489.1077495134709 970.6949872008968 483.67527020642154Q967.6897858821035 478.2716870658991 959.5699630880564 478.2716870658991ZM955.4089151081888 410.25011106167506L948.5605236413235 410.25011106167506L948.5605236413235 474.3129122517195L955.2066419425007 474.3129122517195Q967.0540702185126 474.3129122517195 972.7755111908305 467.03107828695124Q978.4969521631485 459.749244322183 978.4969521631485 443.3362217349276L978.4969521631485 443.3362217349276L978.4969521631485 437.2969229308142Q978.4969521631485 420.85500417703196 973.0066805230454 415.5381095360901Q967.4875127164155 410.25011106167506 955.4089151081888 410.25011106167506L955.4089151081888 410.25011106167506ZM1087.319915303296 406.29133624749545L1210.0708307093894 406.29133624749545L1212.1513546993233 458.50670916152814L1208.1925798851437 458.50670916152814Q1199.0324950961297 430.8530777953249 1191.9818304635762 420.73941951092456Q1184.902269664496 410.654657393051 1171.5811368956145 410.654657393051L1171.5811368956145 410.654657393051L1169.0960665743046 410.654657393051L1169.0960665743046 547.5646943973048L1186.7805204887418 547.5646943973048L1186.7805204887418 551.9280155428604L1110.8413948561586 551.9280155428604L1110.8413948561586 547.5646943973048L1128.5258487705958 547.5646943973048L1128.5258487705958 410.654657393051L1125.8096091170712 410.654657393051Q1112.4884763481896 410.654657393051 1105.2066423834212 421.1728620088274Q1097.9248084186531 431.66217045807696 1089.1981661275418 458.50670916152814L1089.1981661275418 458.50670916152814L1085.2393913133624 458.50670916152814L1087.319915303296 406.29133624749545ZM1261.679384126358 410.85693055873907L1261.679384126358 406.29133624749545L1369.8666316029148 406.29133624749545L1371.9471555928487 449.57779370472895L1368.190653944357 449.57779370472895Q1360.5042736482128 427.0965761468333 1350.3906153638125 418.9767533527862Q1340.305853245939 410.85693055873907 1320.33860217588 410.85693055873907L1320.33860217588 410.85693055873907L1314.5015765374546 410.85693055873907L1314.5015765374546 478.47396023158706L1323.8639344921567 478.47396023158706Q1333.8620081104498 478.47396023158706 1340.508126411627 471.19212626681883Q1347.1831408793312 463.91029230205055 1349.668211200641 451.22487519675985L1349.668211200641 451.22487519675985L1352.7889971855416 451.22487519675985L1352.7889971855416 512.8026060654945L1349.2636648692649 512.8026060654945Q1345.9406057186764 497.19867614099115 1339.9879954141436 490.55255783981374Q1334.0642812761378 483.9064395386364 1323.8639344921567 483.9064395386364L1323.8639344921567 483.9064395386364L1314.5015765374546 483.9064395386364L1314.5015765374546 547.3624212316167L1340.305853245939 547.3624212316167L1340.305853245939 551.9280155428604L1261.679384126358 551.9280155428604L1261.679384126358 547.3624212316167L1273.9313587337458 547.3624212316167L1273.9313587337458 410.85693055873907L1261.679384126358 410.85693055873907ZM1522.149429199457 487.6340450206011L1522.149429199457 487.6340450206011L1522.149429199457 472.23238826178573Q1522.149429199457 434.1761369459135 1518.3929275509656 424.17806332762063L1518.3929275509656 424.17806332762063Q1514.231879571098 412.7351813829848 1506.545499274954 410.047837895987L1506.545499274954 410.047837895987Q1502.1821781293982 408.37186023742925 1495.9406061595969 408.37186023742925Q1489.6990341897954 408.37186023742925 1485.2201283781324 410.047837895987Q1480.7412225664696 411.694919388018 1477.8227097472566 415.8559673678855Q1474.933093094571 420.0170153477531 1473.1415307699058 424.6115058255235Q1471.3788646117675 429.1771001367671 1470.3386026168005 437.49919609650226L1470.3386026168005 437.49919609650226Q1469.0960674561456 449.57779370472895 1469.0960674561456 473.0703770910646L1469.0960674561456 473.0703770910646L1469.0960674561456 488.067487518504Q1469.0960674561456 513.4383217290854 1471.0610067799719 524.1587995105497Q1473.0548422703253 534.8792772920142 1475.9733550895378 539.4448716032578L1475.9733550895378 539.4448716032578Q1482.4172002250273 549.6452183872386 1495.9406061595969 549.6452183872386L1495.9406061595969 549.6452183872386Q1512.382524913379 549.6452183872386 1517.265977056418 535.8039546208736Q1522.149429199457 521.9626908545085 1522.149429199457 487.6340450206011ZM1495.5071636616938 554.0085395327942Q1460.7739714964105 554.0085395327942 1443.6096485794567 535.1682389572827Q1426.4453256625031 516.3568345482981 1426.4453256625031 480.6700688876283Q1426.4453256625031 444.9833032269585 1444.8521837401115 424.49592115941607Q1463.2590418177203 404.0085390918737 1496.980868154564 404.0085390918737Q1530.6737983248802 404.0085390918737 1547.838121241834 423.45565916444923Q1565.0024441587877 442.90277923702473 1565.0024441587877 478.7051295638019Q1565.0024441587877 514.4785837240522 1547.635848076146 534.2435616284233Q1530.2692519935042 554.0085395327942 1495.5071636616938 554.0085395327942ZM1615.3684624151012 410.85693055873907L1615.3684624151012 406.29133624749545L1690.2673260527179 406.29133624749545L1690.2673260527179 410.85693055873907L1668.1906548261982 410.85693055873907L1668.1906548261982 547.3624212316167L1675.7036581231812 547.3624212316167Q1693.3881120376184 547.3624212316167 1703.8774204868678 536.526358784045Q1714.395625102644 525.7191925030002 1725.2027913836891 503.2379749451045L1725.2027913836891 503.2379749451045L1729.5661125292447 503.2379749451045L1725.6362338815923 551.9280155428604L1615.3684624151012 551.9280155428604L1615.3684624151012 547.3624212316167L1627.6204370224893 547.3624212316167L1627.6204370224893 410.85693055873907L1615.3684624151012 410.85693055873907ZM1777.6493336299366 410.25011106167506L1777.6493336299366 406.29133624749545L1841.105315322917 406.29133624749545L1841.105315322917 410.25011106167506L1829.6624333782813 410.25011106167506L1829.6624333782813 547.9692407286809L1841.105315322917 547.9692407286809L1841.105315322917 551.9280155428604L1777.6493336299366 551.9280155428604L1777.6493336299366 547.9692407286809L1789.0922155745723 547.9692407286809L1789.0922155745723 410.25011106167506L1777.6493336299366 410.25011106167506ZM1987.9845297789368 487.6340450206011L1987.9845297789368 487.6340450206011L1987.9845297789368 472.23238826178573Q1987.9845297789368 434.1761369459135 1984.2280281304454 424.17806332762063L1984.2280281304454 424.17806332762063Q1980.0669801505776 412.7351813829848 1972.3805998544337 410.047837895987L1972.3805998544337 410.047837895987Q1968.017278708878 408.37186023742925 1961.7757067390764 408.37186023742925Q1955.5341347692754 408.37186023742925 1951.0552289576124 410.047837895987Q1946.5763231459493 411.694919388018 1943.6578103267364 415.8559673678855Q1940.7392975075238 420.0170153477531 1938.9766313493853 424.6115058255235Q1937.2139651912473 429.1771001367671 1936.17370319628 437.49919609650226L1936.17370319628 437.49919609650226Q1934.9311680356252 449.57779370472895 1934.9311680356252 473.0703770910646L1934.9311680356252 473.0703770910646L1934.9311680356252 488.067487518504Q1934.9311680356252 513.4383217290854 1936.8961073594517 524.1587995105497Q1938.889942849805 534.8792772920142 1941.7795595024907 539.4448716032578L1941.7795595024907 539.4448716032578Q1948.252300804507 549.6452183872386 1961.7757067390764 549.6452183872386L1961.7757067390764 549.6452183872386Q1978.188729326332 549.6452183872386 1983.1010776358978 535.8039546208736Q1987.9845297789368 521.9626908545085 1987.9845297789368 487.6340450206011ZM1961.3422642411736 554.0085395327942Q1926.60907207589 554.0085395327942 1909.4447491589365 535.1682389572827Q1892.280426241983 516.3568345482981 1892.280426241983 480.6700688876283Q1892.280426241983 444.9833032269585 1910.6872843195913 424.49592115941607Q1929.0941423972001 404.0085390918737 1962.8159687340433 404.0085390918737Q1996.50889890436 404.0085390918737 2013.673221821314 423.45565916444923Q2030.8375447382675 442.90277923702473 2030.8375447382675 478.7051295638019Q2030.8375447382675 514.4785837240522 2013.4709486556255 534.2435616284233Q1996.104352572984 554.0085395327942 1961.3422642411736 554.0085395327942Z " fill="9D3C72" transform="matrix(0.4308567446292471,0,0,0.4308567446292471,0,93.61594875890655)"/></g></svg>